<svg xmlns="http://www.w3.org/2000/svg" xmlns:xlink="http://www.w3.org/1999/xlink" version="1.1" x="0px" y="0px" viewBox="0 0 100 125" enable-background="new 0 0 100 100" xml:space="preserve"><metadata><?xpacket begin="&#65279;" id="W5M0MpCehiHzreSzNTczkc9d"?><x:xmpmeta xmlns:x="adobe:ns:meta/" x:xmptk="Adobe XMP Core 5.6-c011 79.156289, 2014/03/31-23:39:12        "/><?xpacket end="w"?></metadata><g><g><g><path d="M75.9,51.5H23.5c-0.8,0-1.5-0.7-1.5-1.5s0.7-1.5,1.5-1.5h52.4c0.8,0,1.5,0.7,1.5,1.5S76.7,51.5,75.9,51.5z"/></g></g><g><g><path d="M69.9,57c-0.5,0-0.9-0.2-1.2-0.6c-0.5-0.7-0.3-1.6,0.4-2.1l5.7-4.1C74.9,50.1,75,50,75,50c0,0,0-0.1-0.2-0.2l-5.8-4     c-0.7-0.5-0.8-1.4-0.4-2.1c0.5-0.7,1.4-0.8,2.1-0.4l5.8,4c1,0.7,1.5,1.6,1.5,2.7c0,1-0.5,2-1.5,2.7l-5.7,4.1     C70.5,56.9,70.2,57,69.9,57z"/></g></g></g><text x="0" y="115" fill="#000000" font-size="5px" font-weight="bold" font-family="'Helvetica Neue', Helvetica, Arial-Unicode, Arial, Sans-serif">Created by 23 icons</text><text x="0" y="120" fill="#000000" font-size="5px" font-weight="bold" font-family="'Helvetica Neue', Helvetica, Arial-Unicode, Arial, Sans-serif">from the Noun Project</text></svg>